<svg width="80" height="61" viewBox="0 0 80 61" fill="none" xmlns="http://www.w3.org/2000/svg">
<path d="M48.6323 12.5457C48.8792 12.5457 49.1208 12.4453 49.2952 12.271C49.4695 12.0956 49.5698 11.8539 49.5698 11.6071C49.5698 11.3617 49.4698 11.1196 49.2952 10.9442C49.1208 10.7699 48.8792 10.6696 48.6323 10.6696C48.3848 10.6696 48.1442 10.7699 47.9698 10.9442C47.7952 11.1196 47.6948 11.3606 47.6948 11.6071C47.6948 11.8546 47.7952 12.0956 47.9698 12.271C48.1442 12.4453 48.3848 12.5457 48.6323 12.5457Z" fill="black"/>
<path d="M23.5 47C36.4787 47 47 36.4787 47 23.5C47 10.5213 36.4787 0 23.5 0C10.5213 0 0 10.5213 0 23.5C0 36.4787 10.5213 47 23.5 47Z" fill="white"/>
<path d="M63.5 61C72.6127 61 80 53.6127 80 44.5C80 35.3873 72.6127 28 63.5 28C54.3873 28 47 35.3873 47 44.5C47 53.6127 54.3873 61 63.5 61Z" fill="white"/>
<path d="M24.4423 46.1202C23.7703 46.1202 23.1243 46.288 22.5511 46.6029C19.5321 42.7328 17.875 37.9252 17.875 33C17.875 20.8 27.8 10.875 40 10.875C41.4832 10.875 42.9656 11.0226 44.4063 11.3137C44.9131 11.4163 45.4082 11.0881 45.5107 10.5806C45.6133 10.073 45.2852 9.57861 44.7776 9.47571C43.215 9.16003 41.6077 9 40 9C33.5895 9 27.5624 11.4965 23.0294 16.0294C18.4965 20.5624 16 26.5895 16 33C16 38.3925 17.8311 43.6549 21.1647 47.8737C20.7355 48.5149 20.5048 49.2686 20.5048 50.0577C20.5048 51.1095 20.9146 52.0983 21.6583 52.8417C22.4017 53.5854 23.3905 53.9952 24.4423 53.9952C25.494 53.9952 26.4828 53.5854 27.2266 52.8417C27.9703 52.0983 28.3798 51.1091 28.3798 50.0574C28.3798 49.006 27.9703 48.0168 27.2266 47.2734C26.4828 46.5297 25.494 46.1202 24.4423 46.1202ZM25.9005 51.516C25.5112 51.9056 24.993 52.1202 24.4423 52.1202C23.8915 52.1202 23.3737 51.9056 22.984 51.516C22.5944 51.1263 22.3798 50.6085 22.3798 50.0577C22.3798 49.5066 22.5944 48.9888 22.984 48.5991C23.3733 48.2095 23.8915 47.9952 24.4423 47.9952C24.993 47.9952 25.5109 48.2098 25.9005 48.5991C26.2902 48.9888 26.5048 49.5066 26.5048 50.0577C26.5048 50.6085 26.2902 51.1263 25.9005 51.516Z" fill="black"/>
<path d="M58.8346 18.1252C59.8538 16.5963 59.6901 14.506 58.3421 13.158C57.5983 12.4146 56.6095 12.0048 55.5578 12.0048C54.506 12.0048 53.5173 12.4146 52.7735 13.158C52.0297 13.9017 51.6203 14.8905 51.6203 15.9423C51.6203 16.994 52.0297 17.9828 52.7735 18.7266C53.5173 19.4703 54.506 19.8798 55.5578 19.8798C56.2298 19.8798 56.8758 19.712 57.4489 19.3971C60.4679 23.2676 62.125 28.0748 62.125 33C62.125 45.2 52.2 55.125 40 55.125C38.5315 55.125 37.063 54.9803 35.6359 54.6947C35.1283 54.5933 34.6343 54.9225 34.5325 55.4301C34.4311 55.938 34.7603 56.4316 35.2679 56.5334C36.8158 56.8429 38.4081 57 40 57C46.4106 57 52.4377 54.5035 56.9706 49.9706C61.5036 45.4376 64 39.4105 64 33C64 27.6072 62.1686 22.3444 58.8346 18.1252ZM54.0995 17.4009C53.7099 17.0112 53.4953 16.4934 53.4953 15.9423C53.4953 15.3915 53.7099 14.8737 54.0995 14.484C54.4888 14.0944 55.007 13.8798 55.5578 13.8798C56.1086 13.8798 56.6268 14.0944 57.0164 14.484C57.8202 15.2882 57.8202 16.5967 57.0164 17.4009C56.6268 17.7902 56.1086 18.0048 55.5578 18.0048C55.0066 18.0048 54.4888 17.7902 54.0995 17.4009Z" fill="black"/>
<path d="M36.1313 49.125C36.1313 49.6428 36.5514 50.0625 37.0688 50.0625H42.9308C43.4486 50.0625 43.8683 49.6428 43.8683 49.125V47.3075C45.101 46.9757 46.2794 46.4872 47.3868 45.8492L48.67 47.1324C48.8458 47.3082 49.0842 47.4071 49.3333 47.4071C49.5815 47.4071 49.8203 47.3082 49.9961 47.1321L54.1394 42.9858C54.5052 42.6196 54.5052 42.026 54.1394 41.6602L52.8577 40.3784C53.4956 39.271 53.9841 38.0925 54.3159 36.8599H56.1265C56.6443 36.8599 57.064 36.4402 57.064 35.9224V30.0604C57.064 29.5426 56.6443 29.1229 56.1265 29.1229H54.3156C53.9838 27.8906 53.4956 26.7122 52.8577 25.6047L54.1324 24.33C54.3082 24.1542 54.4071 23.9154 54.4071 23.6667C54.4067 23.4181 54.3079 23.1793 54.1321 23.0035L49.9855 18.8602C49.6196 18.4944 49.026 18.4944 48.6598 18.8606L47.3868 20.1339C46.2794 19.496 45.101 19.0074 43.8683 18.6757V16.875C43.8683 16.3572 43.4486 15.9375 42.9308 15.9375H37.0688C36.5514 15.9375 36.1313 16.3572 36.1313 16.875V18.676C34.899 19.0074 33.7206 19.496 32.6132 20.1339L31.3398 18.8606C30.974 18.4948 30.3804 18.4944 30.0142 18.8602L25.8679 23.0039C25.6918 23.1797 25.5929 23.4181 25.5929 23.6667C25.5929 23.9154 25.6918 24.1542 25.8676 24.33L27.1423 25.6047C26.5044 26.7122 26.0159 27.8903 25.6841 29.1229H23.8768C23.359 29.1229 22.9393 29.5426 22.9393 30.0601L22.936 35.922C22.9357 36.1707 23.0345 36.4094 23.2103 36.5852C23.3861 36.761 23.6245 36.8599 23.8735 36.8599H25.6841C26.0159 38.0925 26.5044 39.271 27.1423 40.3784L25.8606 41.6602C25.4948 42.026 25.4944 42.6196 25.8606 42.9858L30.0039 47.1321C30.1797 47.3079 30.4181 47.4071 30.6667 47.4071H30.6671C30.9158 47.4071 31.1542 47.3082 31.33 47.1324L32.6128 45.8492C33.7206 46.4872 34.899 46.9757 36.1313 47.3075V49.125ZM32.9805 43.8776C32.6095 43.6377 32.1213 43.6897 31.8086 44.0021L30.6671 45.1436L27.8491 42.3234L28.9895 41.1826C29.3019 40.8702 29.3539 40.3821 29.114 40.0111C28.264 38.6957 27.6664 37.2539 27.3383 35.7253C27.2452 35.2936 26.8636 34.9849 26.4216 34.9849H24.8114L24.8136 30.9979H26.4216C26.8636 30.9979 27.2452 30.6896 27.3383 30.2574C27.6664 28.7292 28.264 27.2875 29.114 25.972C29.3539 25.6011 29.3019 25.1129 28.9895 24.8005L27.8564 23.6671L30.6766 20.8491L31.8086 21.9814C32.1213 22.2938 32.6091 22.3455 32.9805 22.106C34.2955 21.256 35.7373 20.6583 37.2659 20.3302C37.6976 20.2372 38.0063 19.8552 38.0063 19.4136V17.8125H41.9933V19.4132C41.9933 19.8552 42.3016 20.2372 42.7338 20.3298C44.262 20.6583 45.7041 21.2556 47.0192 22.1056C47.3901 22.3455 47.8783 22.2938 48.1907 21.9811L49.323 20.8491L52.1432 23.6671L51.0101 24.8002C50.6974 25.1129 50.6458 25.6011 50.8856 25.972C51.7356 27.2875 52.3329 28.7292 52.6614 30.2574C52.754 30.6896 53.136 30.9979 53.578 30.9979H55.189V34.9849H53.578C53.136 34.9849 52.7544 35.2936 52.6614 35.7253C52.3333 37.2535 51.7356 38.6957 50.8856 40.0107C50.6458 40.3821 50.6978 40.8702 51.0101 41.1826L52.1505 42.323L49.3325 45.1432L48.191 44.0021C47.8783 43.6893 47.3901 43.6377 47.0192 43.8776C45.7037 44.7275 44.262 45.3248 42.7338 45.6533C42.3016 45.7463 41.9933 46.1279 41.9933 46.5699V48.1875H38.0063V46.5699C38.0063 46.1283 37.6976 45.7463 37.2659 45.6533C35.7377 45.3252 34.2959 44.7275 32.9805 43.8776Z" fill="black"/>
<path d="M47.7463 33C47.7463 28.7285 44.2714 25.2535 39.9999 25.2535C35.7284 25.2535 32.2534 28.7285 32.2534 33C32.2534 37.2715 35.7284 40.7465 39.9999 40.7465C44.2714 40.7465 47.7463 37.2715 47.7463 33ZM34.1284 33C34.1284 29.7623 36.7622 27.1285 39.9999 27.1285C43.2375 27.1285 45.8713 29.7627 45.8713 33C45.8713 36.2373 43.2375 38.8715 39.9999 38.8715C36.7622 38.8715 34.1284 36.2377 34.1284 33Z" fill="black"/>
<path d="M31.4087 53.4712C31.1622 53.4712 30.9202 53.5715 30.7458 53.7458C30.5715 53.9202 30.4712 54.1622 30.4712 54.4087C30.4712 54.6562 30.5715 54.8972 30.7458 55.0715C30.9202 55.2458 31.1622 55.3462 31.4087 55.3462C31.6552 55.3462 31.8972 55.2458 32.0715 55.0715C32.2458 54.8972 32.3462 54.6552 32.3462 54.4087C32.3462 54.1622 32.2458 53.9202 32.0715 53.7458C31.8972 53.5715 31.6552 53.4712 31.4087 53.4712Z" fill="black"/>
</svg>
