<svg width="94" height="71" viewBox="0 0 94 71" fill="none" xmlns="http://www.w3.org/2000/svg">
<path d="M27.3525 54.705C42.4589 54.705 54.705 42.4589 54.705 27.3525C54.705 12.2461 42.4589 0 27.3525 0C12.2461 0 0 12.2461 0 27.3525C0 42.4589 12.2461 54.705 27.3525 54.705Z" fill="white"/>
<path d="M73.91 71C84.5166 71 93.1149 62.4017 93.1149 51.7951C93.1149 41.1885 84.5166 32.5902 73.91 32.5902C63.3034 32.5902 54.7051 41.1885 54.7051 51.7951C54.7051 62.4017 63.3034 71 73.91 71Z" fill="white"/>
<path d="M74.2041 22.0619H73.5434C73.1528 20.6903 72.6072 19.3742 71.9137 18.13L72.3833 17.6603C72.9206 17.1232 73.2163 16.4069 73.2163 15.6432C73.2163 14.8795 72.9206 14.1633 72.3829 13.6256L69.2539 10.5003C68.7165 9.95962 67.9993 9.662 67.2343 9.662C66.4693 9.662 65.752 9.95962 65.2173 10.4976L64.7482 10.9667C63.5031 10.271 62.1866 9.72437 60.8158 9.33394V8.67338C60.8159 7.09995 59.5359 5.81982 57.9623 5.81982H53.5384C51.965 5.81982 50.6849 7.09995 50.6849 8.67338V9.33394C49.3143 9.72425 47.997 10.271 46.7494 10.9672L46.2824 10.5003C45.7448 9.95962 45.0276 9.662 44.2627 9.66212C43.4977 9.66212 42.7805 9.95988 42.2459 10.4977L39.1175 13.6262C38.5801 14.1633 38.2844 14.8796 38.2844 15.6433C38.2844 16.407 38.5801 17.1232 39.1173 17.6603L39.5868 18.1299C38.8904 19.3779 38.3445 20.6942 37.9561 22.0619H37.293C35.7196 22.0619 34.4395 23.342 34.4395 24.9155V29.3432C34.4395 30.9167 35.7196 32.1968 37.293 32.1968H37.9561C38.3445 33.5644 38.8904 34.8807 39.5868 36.1288L39.1173 36.5984C38.58 37.1355 38.2843 37.8518 38.2843 38.6155C38.2843 39.3791 38.58 40.0954 39.1172 40.6325L42.2432 43.7584C42.7805 44.2991 43.4976 44.5967 44.2626 44.5967H44.2627C45.0276 44.5967 45.745 44.2991 46.2798 43.7611L46.7492 43.2915C47.9982 43.9883 49.3155 44.5343 50.6847 44.9226V45.5855C50.6847 47.1589 51.9649 48.439 53.5383 48.439H57.9622C59.5357 48.439 60.8158 47.1589 60.8158 45.5855V44.9226C62.1854 44.5342 63.5017 43.9885 64.7482 43.292L65.2146 43.7584C65.752 44.2991 66.4692 44.5967 67.2341 44.5967C67.9992 44.5967 68.7165 44.299 69.2507 43.7616L72.3833 40.6325C72.9205 40.0953 73.2162 39.3789 73.2162 38.6154C73.2162 37.8517 72.9205 37.1355 72.3833 36.5984L71.9136 36.1287C72.6071 34.8845 73.1526 33.5684 73.5432 32.1968H74.2039C75.7774 32.1968 77.0575 30.9167 77.0575 29.3432V24.9155C77.0576 23.342 75.7776 22.0619 74.2041 22.0619ZM58.2699 45.5853C58.2699 45.7521 58.1291 45.8929 57.9623 45.8929H53.5384C53.3717 45.8929 53.2309 45.7521 53.2309 45.5853V43.9326V35.9072C53.2309 35.3748 52.8996 34.8987 52.4006 34.7136C48.9798 33.445 46.6815 30.1527 46.6815 26.5214C46.6815 23.6435 48.1145 20.9458 50.5141 19.3055C50.6218 19.2319 50.7171 19.1718 50.8003 19.1226C50.7957 19.288 50.784 19.4454 50.7778 19.5275C50.7682 19.6567 50.7606 19.7587 50.7606 19.8599V25.8681C50.7606 28.6258 52.9154 30.9289 55.666 31.1113C55.7221 31.115 55.7784 31.115 55.8345 31.1113C58.5832 30.929 60.7363 28.6259 60.7363 25.8681V19.8599C60.7363 19.7592 60.7288 19.6579 60.7194 19.5294C60.7133 19.4469 60.7016 19.2887 60.6971 19.1224C60.7801 19.1716 60.8748 19.2315 60.9822 19.305C63.3824 20.9456 64.8154 23.6434 64.8154 26.5212C64.8154 30.1522 62.5184 33.4446 59.0997 34.7136C58.6008 34.8989 58.2697 35.3748 58.2697 35.9071V43.9325V45.5853H58.2699ZM74.5116 29.3432C74.5116 29.5071 74.3679 29.6508 74.2041 29.6508H72.555C71.9603 29.6508 71.4447 30.0626 71.3135 30.6427C70.9103 32.424 70.2121 34.1085 69.2381 35.6492C68.9201 36.1523 68.9932 36.8086 69.414 37.2295L70.5833 38.3987C70.6591 38.4746 70.6705 38.567 70.6705 38.6154C70.6705 38.6636 70.6591 38.7562 70.5836 38.8315L67.4484 41.9634C67.3767 42.0354 67.2923 42.0506 67.2343 42.0506C67.1763 42.0506 67.0921 42.0354 67.0177 41.9606L65.8485 40.7913C65.427 40.37 64.77 40.2974 64.2669 40.6162C63.1803 41.3047 62.0236 41.8511 60.8159 42.2549V36.7539C64.7653 34.9159 67.3617 30.9107 67.3617 26.5211C67.3617 22.8018 65.5139 19.3183 62.4193 17.203C61.9452 16.879 60.5035 15.8933 59.2426 16.6191C58.0045 17.332 58.1278 19.003 58.1804 19.7167C58.185 19.7787 58.1895 19.8307 58.1905 19.8599V25.8681C58.1905 27.2615 57.1255 28.4297 55.7504 28.564C54.3734 28.4296 53.3067 27.2614 53.3067 25.8681L53.3066 19.869C53.3077 19.8307 53.3123 19.7787 53.3169 19.7164C53.37 19.0032 53.4944 17.333 52.2573 16.6197C50.9969 15.8927 49.553 16.8788 49.0781 17.203C45.9832 19.3185 44.1355 22.8019 44.1355 26.5212C44.1355 30.9114 46.7333 34.9169 50.6849 36.7544V42.255C49.4769 41.8512 48.3189 41.3046 47.229 40.6157C47.0195 40.4833 46.7837 40.4187 46.5491 40.4187C46.2203 40.4187 45.8942 40.5459 45.6486 40.7916L44.4769 41.9634C44.4053 42.0356 44.3209 42.0507 44.2628 42.0507C44.2048 42.0507 44.1206 42.0356 44.0463 41.9608L40.9178 38.8322C40.8418 38.7563 40.8304 38.6638 40.8304 38.6155C40.8304 38.5671 40.8418 38.4747 40.9178 38.3987L42.0869 37.2295C42.5077 36.8086 42.5808 36.1523 42.2628 35.6492C41.2839 34.1003 40.5858 32.4166 40.1879 30.6449C40.0576 30.0637 39.5415 29.6507 38.9459 29.6507H37.2933C37.1294 29.6507 36.9857 29.5069 36.9857 29.3431V24.9153C36.9857 24.7486 37.1265 24.6078 37.2933 24.6078H38.9459C39.5415 24.6078 40.0575 24.1947 40.1879 23.6136C40.5858 21.8418 41.2837 20.158 42.2628 18.6093C42.5808 18.1062 42.5077 17.4498 42.0869 17.029L40.9176 15.8597C40.8418 15.7839 40.8304 15.6914 40.8304 15.6431C40.8304 15.5947 40.8418 15.5023 40.9178 15.4263L44.049 12.2949C44.1206 12.2229 44.2049 12.2077 44.2629 12.2077C44.321 12.2077 44.4053 12.2229 44.4796 12.2976L45.6487 13.4669C46.0698 13.8879 46.7262 13.9608 47.2292 13.6428C48.776 12.6649 50.4616 11.9654 52.2386 11.564C52.819 11.4329 53.2311 10.9172 53.2311 10.3223V8.67338C53.2311 8.50662 53.3719 8.36583 53.5387 8.36583H57.9626C58.1294 8.36583 58.2702 8.50662 58.2702 8.67338V10.3226C58.2702 10.9176 58.6822 11.4331 59.2626 11.5642C61.0412 11.966 62.7249 12.6651 64.2671 13.6424C64.7704 13.9612 65.4272 13.8886 65.8487 13.4673L67.0205 12.2953C67.0922 12.2233 67.1766 12.2081 67.2345 12.2081C67.2926 12.2081 67.3768 12.2233 67.4517 12.2985L70.5835 15.4267C70.6594 15.5025 70.6707 15.5949 70.6707 15.6433C70.6707 15.6917 70.6594 15.7841 70.5834 15.8601L69.4143 17.0294C68.9934 17.4502 68.9203 18.1066 69.2383 18.6097C70.2122 20.1504 70.9106 21.8347 71.3137 23.6161C71.445 24.1962 71.9605 24.608 72.5553 24.608H74.2043C74.3711 24.608 74.5119 24.7488 74.5119 24.9156V29.3432H74.5116Z" fill="black"/>
<path d="M63.1682 61.8727C62.6711 62.3698 62.6711 63.1759 63.1682 63.6732C63.4169 63.9217 63.7426 64.046 64.0684 64.046C64.3942 64.046 64.7199 63.9217 64.9686 63.6732L64.9721 63.6696C65.4693 63.1725 65.4675 62.3682 64.9702 61.8711C64.473 61.3739 63.6654 61.3759 63.1682 61.8727Z" fill="black"/>
<path d="M69.0652 49.541L58.9588 54.7311C58.102 53.8439 56.9016 53.2904 55.5737 53.2904H48.6491C48.2613 53.2904 48.1666 53.2595 48.1603 53.2574C48.1041 53.2278 47.9267 53.0611 47.7842 52.9272L47.7211 52.8678C42.1189 47.5942 37.3865 47.9283 32.0049 50.0522C31.1341 50.3959 31.1173 50.3967 30.2429 50.434L28.6771 50.4351C28.2311 49.0894 26.9616 48.1156 25.4683 48.1156H20.3768C18.5147 48.1156 17 49.6321 17 51.4961V64.8586C17 66.7205 18.5147 68.2354 20.3768 68.2354H25.4683C26.9615 68.2354 28.2308 67.2627 28.677 65.9186H31.5412C31.7942 65.9186 31.7942 65.9186 32.0884 66.0015C32.1953 66.0317 32.3254 66.0684 32.4934 66.1135L45.6682 69.6382C46.249 69.7951 46.7816 69.9495 47.2968 70.0987C48.9848 70.5878 50.4037 70.9989 51.8825 70.9989C53.554 70.9989 55.3017 70.4737 57.6003 68.9418C57.6114 68.9344 57.6225 68.9268 57.6334 68.919L60.1486 67.1255C60.7211 66.7172 60.8543 65.9223 60.446 65.3499C60.0378 64.7773 59.2426 64.6442 58.6705 65.0525L56.172 66.8341C52.8363 69.0528 51.4198 68.6426 48.0053 67.6532C47.4793 67.5009 46.9355 67.3433 46.3294 67.1796L33.1536 63.6547C32.9993 63.6132 32.8783 63.5791 32.779 63.5511C32.2983 63.4157 32.1185 63.3729 31.5414 63.3729H28.8487V52.9822H30.2244C30.2428 52.9822 30.2609 52.9818 30.2792 52.981L30.3517 52.978C31.4189 52.9324 31.7174 52.9032 32.9398 52.4206C37.6663 50.5554 41.3147 50.3338 45.9777 54.7235L46.0407 54.7827C46.8376 55.5316 47.2965 55.8366 48.6492 55.8366H55.5738C56.3865 55.8366 57.0952 56.2878 57.4646 56.9524C57.4686 56.9598 57.4732 56.9668 57.4772 56.9742C57.6422 57.2793 57.7362 57.6284 57.7362 57.9991C57.7362 59.1894 56.7663 60.1578 55.574 60.1578H44.3516C43.6486 60.1578 43.0786 60.7277 43.0786 61.4308C43.0786 62.1339 43.6486 62.7038 44.3516 62.7038H55.574C58.1701 62.7038 60.2822 60.5933 60.2822 57.9991C60.2822 57.6464 60.2419 57.3032 60.1681 56.9726L70.2284 51.8062C71.1806 51.3173 72.4826 51.3698 73.129 52.4187C73.7009 53.3433 73.3863 54.5723 72.3978 55.277L67.9847 58.42C67.412 58.8279 67.2783 59.6228 67.6862 60.1955C67.9346 60.5442 68.3264 60.7302 68.7242 60.7302C68.9797 60.7302 69.2376 60.6534 69.4615 60.494L73.8751 57.3506C75.9713 55.8562 76.5813 53.1602 75.2953 51.0813C74.0307 49.029 71.3526 48.3668 69.0652 49.541ZM26.3026 64.8586C26.3026 65.309 25.9206 65.6894 25.4683 65.6894H20.3768C19.9264 65.6894 19.546 65.3089 19.546 64.8586V51.4962C19.546 51.0361 19.9187 50.6617 20.3768 50.6617H25.4683C25.9206 50.6617 26.3026 51.0438 26.3026 51.4962V64.8586Z" fill="black"/>
</svg>
