<svg width="88" height="67" viewBox="0 0 88 67" fill="none" xmlns="http://www.w3.org/2000/svg">
<g clip-path="url(#clip0_1_9)">
<path d="M25.8115 51.623C40.0668 51.623 51.623 40.0668 51.623 25.8115C51.623 11.5562 40.0668 0 25.8115 0C11.5562 0 0 11.5562 0 25.8115C0 40.0668 11.5562 51.623 25.8115 51.623Z" fill="white"/>
<path d="M69.746 67.0001C79.755 67.0001 87.869 58.8862 87.869 48.8771C87.869 38.868 79.755 30.7541 69.746 30.7541C59.7369 30.7541 51.623 38.868 51.623 48.8771C51.623 58.8862 59.7369 67.0001 69.746 67.0001Z" fill="white"/>
<path d="M67.7704 16.1284H62.7125C62.1537 16.1284 61.7009 16.5813 61.7009 17.14V17.6458H58.6661C58.2857 17.6458 57.9547 17.856 57.7819 18.1664C48.6144 18.5257 41.2667 26.0946 41.2667 35.3487V36.3603H40.7609C40.2022 36.3603 39.7493 36.8132 39.7493 37.3719V41.4183C39.7493 41.977 40.2022 42.4299 40.7609 42.4299H41.2667V46.1727C41.2667 47.1176 40.8984 48.0058 40.2298 48.6764C39.5601 49.3441 38.6709 49.7133 37.7261 49.7133C36.7813 49.7133 35.8921 49.3441 35.2224 48.6764C34.5537 48.0058 34.1855 47.1176 34.1855 46.1727V42.4299H34.6913C35.25 42.4299 35.7029 41.977 35.7029 41.4183V37.3719C35.7029 36.8132 35.25 36.3603 34.6913 36.3603H34.1855V23.0731C34.4876 22.8981 34.6913 22.5722 34.6913 22.198V19.1632H35.1971C35.7558 19.1632 36.2087 18.7103 36.2087 18.1516V13.0936C36.2087 12.5349 35.7558 12.082 35.1971 12.082H19.0116C18.4529 12.082 18 12.5349 18 13.0936V18.1516C18 18.7103 18.4529 19.1632 19.0116 19.1632H19.5174V22.198C19.5174 22.5722 19.7211 22.8982 20.0232 23.0731V36.3603H19.5174C18.9587 36.3603 18.5058 36.8132 18.5058 37.3719V41.4183C18.5058 41.977 18.9587 42.4299 19.5174 42.4299H20.0232V46.1727C20.0232 48.5631 20.4916 50.8807 21.4141 53.0637C21.8582 54.1128 22.4075 55.1243 23.0468 56.0702C23.6801 57.0079 24.4074 57.889 25.2086 58.6902C26.0098 59.4914 26.8909 60.2187 27.8286 60.852C28.7745 61.4913 29.7861 62.0406 30.8351 62.4847C33.0181 63.4073 35.3352 63.8756 37.7256 63.8756L37.7261 63.8706V63.8746V63.8756C39.0412 63.8756 40.2869 63.7381 41.5292 63.466C42.737 63.2009 43.9209 62.8074 45.0478 62.2945C46.1535 61.7918 47.2127 61.1706 48.195 60.4504C49.1691 59.7342 50.0736 58.9168 50.8819 58.0185C51.2551 57.6038 51.2218 56.9634 50.8071 56.5901C50.621 56.4222 50.3812 56.3302 50.1303 56.3302C49.8441 56.3302 49.57 56.4516 49.3787 56.664C46.4066 59.9608 42.1599 61.8525 37.7261 61.8525C33.5391 61.8525 29.602 60.2208 26.639 57.2598C23.6781 54.2969 22.0464 50.3597 22.0464 46.1727V42.4299H32.1623V46.1727C32.1623 46.9244 32.31 47.6527 32.5993 48.3386C32.8795 49.0012 33.2811 49.596 33.792 50.1068C34.3028 50.6177 34.8977 51.0183 35.5603 51.2995C36.2461 51.5888 36.9745 51.7365 37.7261 51.7365C38.4777 51.7365 39.206 51.5888 39.8919 51.2995C40.5545 51.0183 41.1493 50.6177 41.6602 50.1068C42.171 49.596 42.5726 49.0012 42.8528 48.3386C43.1422 47.6527 43.2898 46.9244 43.2898 46.1727V42.4299H53.4058V46.1727C53.4058 47.157 53.3137 48.1423 53.1327 49.1023C53.0821 49.3684 53.1387 49.6375 53.2915 49.86C53.4432 50.0836 53.6739 50.2343 53.9389 50.2839C54.0016 50.296 54.0653 50.3021 54.1281 50.3021C54.6126 50.3021 55.0304 49.9551 55.1204 49.4776C55.3248 48.3952 55.429 47.2835 55.429 46.1727V42.4299H55.9348C56.4935 42.4299 56.9464 41.977 56.9464 41.4183V37.3719C56.9464 36.8132 56.4935 36.3603 55.9348 36.3603H55.429V35.551C55.429 34.0446 56.4631 32.7754 57.8587 32.4159C58.0433 32.6608 58.3358 32.8197 58.6661 32.8197H61.7009V33.3255C61.7009 33.8842 62.1537 34.3371 62.7125 34.3371H67.7704C68.3291 34.3371 68.782 33.8842 68.782 33.3255V17.14C68.782 16.5813 68.3291 16.1284 67.7704 16.1284ZM33.6797 40.4067H20.529V38.3835H33.6797V40.4067ZM32.1623 23.2096V36.3603H22.0464V23.2096H32.1623ZM25.587 21.1864V19.1632H28.6217V21.1864H25.587ZM30.6449 21.1864V19.1632H32.6681V21.1864H30.6449ZM23.5638 21.1864H21.5406V19.1632H23.5638V21.1864ZM20.0232 17.14V14.1052H34.1855V17.14H20.0232ZM54.9232 40.4067H41.7725V38.3835H54.9232V40.4067ZM57.6545 30.3883C55.2363 30.8613 53.4058 32.9964 53.4058 35.551V36.3603H43.2898V35.3487C43.2898 27.2535 49.6626 20.6185 57.6545 20.1961V30.3883ZM61.7009 30.7965H59.6777V28.7733H61.7009V30.7965ZM61.7009 26.7501H59.6777V23.7154H61.7009V26.7501ZM61.7009 21.6922H59.6777V19.669H61.7009V21.6922ZM66.7588 32.3139H63.724V18.1516H66.7588V32.3139Z" fill="black"/>
<path d="M28.1628 52.7209C27.9746 52.4417 27.661 52.2758 27.3242 52.2758C27.1218 52.2758 26.9266 52.3354 26.7587 52.4487C26.5351 52.6005 26.3834 52.8301 26.3318 53.0951C26.2802 53.3602 26.3358 53.6293 26.4866 53.8538C28.3145 56.5588 31.0488 58.5153 34.1868 59.362C34.2738 59.3852 34.3628 59.3974 34.4508 59.3974C34.9071 59.3974 35.3087 59.0899 35.427 58.6488C35.5727 58.1106 35.253 57.5543 34.7138 57.4086C32.0453 56.6893 29.7186 55.0243 28.1628 52.7209Z" fill="black"/>
<path d="M47.1118 28.8553C46.8376 29.3421 47.01 29.9589 47.4969 30.2331C47.6538 30.3215 47.8243 30.3634 47.9923 30.3634C48.3457 30.3634 48.6889 30.1779 48.8747 29.848C48.9775 29.6655 49.0869 29.4834 49.2 29.3065C50.2542 27.6586 51.7254 26.3079 53.4545 25.4C53.9491 25.1403 54.1396 24.5287 53.88 24.0341C53.6202 23.5394 53.0085 23.3491 52.5141 23.6086C50.4743 24.6796 48.739 26.2729 47.4958 28.2162C47.3623 28.4249 47.2331 28.6399 47.1118 28.8553Z" fill="black"/>
<path d="M52.682 54.6024C53.2407 54.6024 53.6936 54.1495 53.6936 53.5908C53.6936 53.0321 53.2407 52.5792 52.682 52.5792C52.1233 52.5792 51.6704 53.0321 51.6704 53.5908C51.6704 54.1495 52.1233 54.6024 52.682 54.6024Z" fill="black"/>
</g>
<defs>
<clipPath id="clip0_1_9">
<rect width="88" height="67" fill="white"/>
</clipPath>
</defs>
</svg>
