<svg width="165" height="42" viewBox="0 0 165 42" fill="none" xmlns="http://www.w3.org/2000/svg">
<path d="M52.7793 16.4912V21H50.1426V8.20312H55.1348C56.0957 8.20312 56.9395 8.37891 57.666 8.73047C58.3984 9.08203 58.9609 9.58301 59.3535 10.2334C59.7461 10.8779 59.9424 11.6133 59.9424 12.4395C59.9424 13.6934 59.5117 14.6836 58.6504 15.4102C57.7949 16.1309 56.6084 16.4912 55.0908 16.4912H52.7793ZM52.7793 14.3555H55.1348C55.832 14.3555 56.3623 14.1914 56.7256 13.8633C57.0947 13.5352 57.2793 13.0664 57.2793 12.457C57.2793 11.8301 57.0947 11.3232 56.7256 10.9365C56.3564 10.5498 55.8467 10.3506 55.1963 10.3389H52.7793V14.3555ZM64.2754 21H61.7266V7.5H64.2754V21ZM72.0713 20.0332C71.4443 20.7949 70.5771 21.1758 69.4697 21.1758C68.4502 21.1758 67.6709 20.8828 67.1318 20.2969C66.5986 19.7109 66.3262 18.8525 66.3145 17.7217V11.4902H68.8545V17.6338C68.8545 18.624 69.3057 19.1191 70.208 19.1191C71.0693 19.1191 71.6611 18.8203 71.9834 18.2227V11.4902H74.5322V21H72.1416L72.0713 20.0332ZM78.8301 11.4902L78.9092 12.5537C79.583 11.7275 80.4941 11.3145 81.6426 11.3145C82.8672 11.3145 83.708 11.7979 84.165 12.7646C84.833 11.7979 85.7852 11.3145 87.0215 11.3145C88.0527 11.3145 88.8203 11.6162 89.3242 12.2197C89.8281 12.8174 90.0801 13.7197 90.0801 14.9268V21H87.5312V14.9355C87.5312 14.3965 87.4258 14.0039 87.2148 13.7578C87.0039 13.5059 86.6318 13.3799 86.0986 13.3799C85.3369 13.3799 84.8096 13.7432 84.5166 14.4697L84.5254 21H81.9854V14.9443C81.9854 14.3936 81.877 13.9951 81.6602 13.749C81.4434 13.5029 81.0742 13.3799 80.5527 13.3799C79.832 13.3799 79.3105 13.6787 78.9883 14.2764V21H76.4482V11.4902H78.8301ZM100.609 16.333C100.609 17.8564 100.284 19.0459 99.6338 19.9014C98.9834 20.751 98.0752 21.1758 96.9092 21.1758C95.8779 21.1758 95.0547 20.7803 94.4395 19.9893L94.3252 21H92.04V7.5H94.5801V12.3428C95.166 11.6572 95.9365 11.3145 96.8916 11.3145C98.0518 11.3145 98.96 11.7422 99.6162 12.5977C100.278 13.4473 100.609 14.6455 100.609 16.1924V16.333ZM98.0693 16.1484C98.0693 15.1875 97.917 14.4873 97.6123 14.0479C97.3076 13.6025 96.8535 13.3799 96.25 13.3799C95.4414 13.3799 94.8848 13.7109 94.5801 14.373V18.126C94.8906 18.7939 95.4531 19.1279 96.2676 19.1279C97.0879 19.1279 97.627 18.7236 97.8848 17.915C98.0078 17.5283 98.0693 16.9395 98.0693 16.1484ZM106.56 21.1758C105.165 21.1758 104.028 20.748 103.149 19.8926C102.276 19.0371 101.84 17.8975 101.84 16.4736V16.2275C101.84 15.2725 102.024 14.4199 102.394 13.6699C102.763 12.9141 103.284 12.334 103.958 11.9297C104.638 11.5195 105.411 11.3145 106.278 11.3145C107.579 11.3145 108.602 11.7246 109.346 12.5449C110.096 13.3652 110.471 14.5283 110.471 16.0342V17.0713H104.415C104.497 17.6924 104.743 18.1904 105.153 18.5654C105.569 18.9404 106.094 19.1279 106.727 19.1279C107.705 19.1279 108.47 18.7734 109.021 18.0645L110.269 19.4619C109.888 20.001 109.372 20.4229 108.722 20.7275C108.071 21.0264 107.351 21.1758 106.56 21.1758ZM106.27 13.3711C105.766 13.3711 105.355 13.541 105.039 13.8809C104.729 14.2207 104.529 14.707 104.441 15.3398H107.975V15.1377C107.963 14.5752 107.811 14.1416 107.518 13.8369C107.225 13.5264 106.809 13.3711 106.27 13.3711ZM117.265 13.8721C116.919 13.8252 116.614 13.8018 116.351 13.8018C115.39 13.8018 114.76 14.127 114.461 14.7773V21H111.921V11.4902H114.32L114.391 12.624C114.9 11.751 115.606 11.3145 116.509 11.3145C116.79 11.3145 117.054 11.3525 117.3 11.4287L117.265 13.8721ZM125.781 16.4912V21H123.145V8.20312H128.137C129.098 8.20312 129.941 8.37891 130.668 8.73047C131.4 9.08203 131.963 9.58301 132.355 10.2334C132.748 10.8779 132.944 11.6133 132.944 12.4395C132.944 13.6934 132.514 14.6836 131.652 15.4102C130.797 16.1309 129.61 16.4912 128.093 16.4912H125.781ZM125.781 14.3555H128.137C128.834 14.3555 129.364 14.1914 129.728 13.8633C130.097 13.5352 130.281 13.0664 130.281 12.457C130.281 11.8301 130.097 11.3232 129.728 10.9365C129.358 10.5498 128.849 10.3506 128.198 10.3389H125.781V14.3555ZM134.078 16.1572C134.078 15.2139 134.26 14.373 134.623 13.6348C134.986 12.8965 135.508 12.3252 136.188 11.9209C136.873 11.5166 137.667 11.3145 138.569 11.3145C139.853 11.3145 140.898 11.707 141.707 12.4922C142.521 13.2773 142.976 14.3438 143.069 15.6914L143.087 16.3418C143.087 17.8008 142.68 18.9727 141.865 19.8574C141.051 20.7363 139.958 21.1758 138.587 21.1758C137.216 21.1758 136.12 20.7363 135.3 19.8574C134.485 18.9785 134.078 17.7832 134.078 16.2715V16.1572ZM136.618 16.3418C136.618 17.2441 136.788 17.9355 137.128 18.416C137.468 18.8906 137.954 19.1279 138.587 19.1279C139.202 19.1279 139.683 18.8936 140.028 18.4248C140.374 17.9502 140.547 17.1943 140.547 16.1572C140.547 15.2725 140.374 14.5869 140.028 14.1006C139.683 13.6143 139.196 13.3711 138.569 13.3711C137.948 13.3711 137.468 13.6143 137.128 14.1006C136.788 14.5811 136.618 15.3281 136.618 16.3418ZM147.332 21H144.783V11.4902H147.332V21ZM144.634 9.0293C144.634 8.64844 144.76 8.33496 145.012 8.08887C145.27 7.84277 145.618 7.71973 146.058 7.71973C146.491 7.71973 146.837 7.84277 147.095 8.08887C147.353 8.33496 147.481 8.64844 147.481 9.0293C147.481 9.41602 147.35 9.73242 147.086 9.97852C146.828 10.2246 146.485 10.3477 146.058 10.3477C145.63 10.3477 145.284 10.2246 145.021 9.97852C144.763 9.73242 144.634 9.41602 144.634 9.0293ZM151.771 11.4902L151.85 12.5889C152.529 11.7393 153.44 11.3145 154.583 11.3145C155.591 11.3145 156.341 11.6104 156.833 12.2021C157.325 12.7939 157.577 13.6787 157.589 14.8564V21H155.049V14.918C155.049 14.3789 154.932 13.9893 154.697 13.749C154.463 13.5029 154.073 13.3799 153.528 13.3799C152.813 13.3799 152.277 13.6846 151.92 14.2939V21H149.38V11.4902H151.771ZM162.563 9.15234V11.4902H164.189V13.3535H162.563V18.0996C162.563 18.4512 162.631 18.7031 162.766 18.8555C162.9 19.0078 163.158 19.084 163.539 19.084C163.82 19.084 164.069 19.0635 164.286 19.0225V20.9473C163.788 21.0996 163.275 21.1758 162.748 21.1758C160.967 21.1758 160.059 20.2764 160.023 18.4775V13.3535H158.635V11.4902H160.023V9.15234H162.563Z" fill="black"/>
<path d="M128.216 31.6318C128.16 32.3968 127.877 32.999 127.366 33.4385C126.858 33.8779 126.188 34.0977 125.354 34.0977C124.443 34.0977 123.725 33.7917 123.201 33.1797C122.68 32.5645 122.42 31.7214 122.42 30.6504V30.2158C122.42 29.5322 122.54 28.93 122.781 28.4092C123.022 27.8883 123.366 27.4896 123.812 27.2129C124.261 26.9329 124.782 26.793 125.374 26.793C126.194 26.793 126.855 27.0127 127.356 27.4521C127.858 27.8916 128.147 28.5085 128.226 29.3027H126.761C126.725 28.8438 126.596 28.5117 126.375 28.3066C126.157 28.0983 125.823 27.9941 125.374 27.9941C124.886 27.9941 124.52 28.1699 124.275 28.5215C124.035 28.8698 123.911 29.4118 123.904 30.1475V30.6846C123.904 31.4528 124.02 32.0143 124.251 32.3691C124.485 32.724 124.853 32.9014 125.354 32.9014C125.807 32.9014 126.144 32.7988 126.365 32.5938C126.59 32.3854 126.718 32.0648 126.751 31.6318H128.216ZM128.865 31.3096C128.865 30.7855 128.966 30.3184 129.168 29.9082C129.37 29.498 129.66 29.1807 130.037 28.9561C130.418 28.7314 130.859 28.6191 131.36 28.6191C132.073 28.6191 132.654 28.8372 133.104 29.2734C133.556 29.7096 133.808 30.3021 133.86 31.0508L133.87 31.4121C133.87 32.2227 133.644 32.8737 133.191 33.3652C132.739 33.8535 132.132 34.0977 131.37 34.0977C130.608 34.0977 130 33.8535 129.544 33.3652C129.091 32.877 128.865 32.2129 128.865 31.373V31.3096ZM130.276 31.4121C130.276 31.9134 130.371 32.2975 130.56 32.5645C130.748 32.8281 131.019 32.96 131.37 32.96C131.712 32.96 131.979 32.8298 132.171 32.5693C132.363 32.3057 132.459 31.8857 132.459 31.3096C132.459 30.818 132.363 30.4372 132.171 30.167C131.979 29.8968 131.709 29.7617 131.36 29.7617C131.015 29.7617 130.748 29.8968 130.56 30.167C130.371 30.4339 130.276 30.849 130.276 31.4121ZM136.062 28.7168L136.106 29.3076C136.481 28.8486 136.987 28.6191 137.625 28.6191C138.305 28.6191 138.772 28.8877 139.026 29.4248C139.397 28.8877 139.926 28.6191 140.613 28.6191C141.186 28.6191 141.613 28.7868 141.893 29.1221C142.173 29.4541 142.312 29.9554 142.312 30.626V34H140.896V30.6309C140.896 30.3314 140.838 30.1133 140.721 29.9766C140.604 29.8366 140.397 29.7666 140.101 29.7666C139.677 29.7666 139.384 29.9684 139.222 30.3721L139.227 34H137.815V30.6357C137.815 30.3298 137.755 30.1084 137.635 29.9717C137.514 29.835 137.309 29.7666 137.02 29.7666C136.619 29.7666 136.329 29.9326 136.15 30.2646V34H134.739V28.7168H136.062ZM148.157 31.4072C148.157 32.221 147.972 32.8737 147.601 33.3652C147.233 33.8535 146.735 34.0977 146.106 34.0977C145.573 34.0977 145.141 33.9121 144.812 33.541V36.0312H143.401V28.7168H144.71L144.759 29.2344C145.101 28.8242 145.547 28.6191 146.097 28.6191C146.748 28.6191 147.254 28.86 147.615 29.3418C147.977 29.8236 148.157 30.4876 148.157 31.334V31.4072ZM146.746 31.3047C146.746 30.8132 146.658 30.4339 146.482 30.167C146.31 29.9001 146.058 29.7666 145.726 29.7666C145.283 29.7666 144.979 29.9359 144.812 30.2744V32.4375C144.985 32.7858 145.293 32.96 145.735 32.96C146.409 32.96 146.746 32.4082 146.746 31.3047ZM152.098 34C152.033 33.873 151.985 33.7152 151.956 33.5264C151.614 33.9072 151.17 34.0977 150.623 34.0977C150.105 34.0977 149.676 33.9479 149.334 33.6484C148.995 33.349 148.826 32.9714 148.826 32.5156C148.826 31.9557 149.033 31.526 149.446 31.2266C149.863 30.9271 150.464 30.7757 151.248 30.7725H151.897V30.4697C151.897 30.2256 151.834 30.0303 151.707 29.8838C151.583 29.7373 151.386 29.6641 151.116 29.6641C150.879 29.6641 150.691 29.721 150.555 29.835C150.421 29.9489 150.354 30.1051 150.354 30.3037H148.943C148.943 29.9977 149.038 29.7145 149.227 29.4541C149.415 29.1937 149.682 28.9902 150.027 28.8438C150.372 28.694 150.76 28.6191 151.189 28.6191C151.84 28.6191 152.356 28.7835 152.737 29.1123C153.121 29.4378 153.313 29.8968 153.313 30.4893V32.7793C153.317 33.2806 153.387 33.6598 153.523 33.917V34H152.098ZM150.931 33.0186C151.139 33.0186 151.331 32.973 151.507 32.8818C151.683 32.7874 151.813 32.6621 151.897 32.5059V31.5977H151.37C150.664 31.5977 150.288 31.8418 150.242 32.3301L150.237 32.4131C150.237 32.5889 150.299 32.7337 150.423 32.8477C150.547 32.9616 150.716 33.0186 150.931 33.0186ZM155.696 28.7168L155.74 29.3271C156.118 28.8551 156.624 28.6191 157.259 28.6191C157.819 28.6191 158.235 28.7835 158.509 29.1123C158.782 29.4411 158.922 29.9326 158.929 30.5869V34H157.518V30.6211C157.518 30.3216 157.452 30.1051 157.322 29.9717C157.192 29.835 156.976 29.7666 156.673 29.7666C156.276 29.7666 155.978 29.9359 155.779 30.2744V34H154.368V28.7168H155.696ZM161.976 32.0029L162.952 28.7168H164.466L162.342 34.8203L162.225 35.0986C161.909 35.7887 161.388 36.1338 160.662 36.1338C160.457 36.1338 160.249 36.1029 160.037 36.041V34.9717L160.252 34.9766C160.519 34.9766 160.717 34.9359 160.848 34.8545C160.981 34.7731 161.085 34.638 161.16 34.4492L161.326 34.0146L159.476 28.7168H160.994L161.976 32.0029Z" fill="#DD3142"/>
<rect y="12.3994" width="29.4283" height="28.8932" fill="#DD3142"/>
<circle cx="24.6013" cy="17.9245" r="15.9245" fill="#DD3142" stroke="white" stroke-width="4"/>
</svg>
