<svg width="14" height="12" viewBox="0 0 14 12" fill="none" xmlns="http://www.w3.org/2000/svg">
<path d="M14 1.42062C13.4794 1.66154 12.9246 1.82123 12.3462 1.89877C12.9412 1.524 13.3954 0.935077 13.6089 0.225231C13.0541 0.574154 12.4416 0.820615 11.7889 0.958154C11.2621 0.366462 10.5114 0 9.69238 0C8.10337 0 6.82412 1.36062 6.82412 3.02862C6.82412 3.26862 6.84338 3.49938 6.89062 3.71908C4.5045 3.59631 2.39313 2.38985 0.97475 0.552C0.727125 1.00523 0.581875 1.524 0.581875 2.08246C0.581875 3.13108 1.09375 4.06062 1.85675 4.59877C1.39562 4.58954 0.94325 4.44831 0.56 4.22585C0.56 4.23508 0.56 4.24708 0.56 4.25908C0.56 5.73046 1.55487 6.95262 2.8595 7.23415C2.62587 7.30154 2.37125 7.33385 2.107 7.33385C1.92325 7.33385 1.73775 7.32277 1.56362 7.28215C1.9355 8.48123 2.99075 9.36277 4.2455 9.39138C3.269 10.1972 2.02912 10.6828 0.686875 10.6828C0.4515 10.6828 0.22575 10.6717 0 10.6412C1.27137 11.5062 2.77813 12 4.403 12C9.6845 12 12.572 7.38462 12.572 3.384C12.572 3.25015 12.5676 3.12092 12.5615 2.99262C13.1311 2.56615 13.6097 2.03354 14 1.42062Z" fill="#DD3142"/>
</svg>
